<svg xmlns="http://www.w3.org/2000/svg" viewBox="0 0 1408 512"><title>banner</title><g style="isolation:isolate"><path d="M502.34 322.17a254.81 254.81 0 0 1-66.26 114.75c62.55 62.45 155.72 90.82 247.24 66.3a255.89 255.89 0 0 0-180.98-181.05z" fill="#fc6" style="mix-blend-mode:soft-light"/><path d="M1155 74.93a255.89 255.89 0 0 0-66.3 247.25 254.81 254.81 0 0 1 132.55 0A255.84 255.84 0 0 0 1155 74.93z" fill="#c30" style="mix-blend-mode:soft-light"/><path d="M1221.27 322.18A254.81 254.81 0 0 1 1155 436.93c62.55 62.45 155.72 90.82 247.24 66.3a255.89 255.89 0 0 0-180.97-181.05z" fill="#fc6" style="mix-blend-mode:soft-light"/><path d="M1221.23 322.15a254.81 254.81 0 0 0-132.55 0 254.81 254.81 0 0 0 66.26 114.75l.22-.14a254.81 254.81 0 0 0 66.12-114.6z" fill="#f93" style="mix-blend-mode:multiply"/><path d="M795 74.93a255.89 255.89 0 0 0-66.3 247.25 254.81 254.81 0 0 1 132.55 0A255.84 255.84 0 0 0 795 74.93z" fill="#900" style="mix-blend-mode:soft-light"/><path d="M861.27 322.18A254.81 254.81 0 0 1 795 436.93c62.55 62.45 155.72 90.82 247.24 66.3a255.89 255.89 0 0 0-180.97-181.05z" fill="#f93" style="mix-blend-mode:multiply"/><path d="M861.23 322.15a254.81 254.81 0 0 0-132.55 0 254.81 254.81 0 0 0 66.26 114.75l.22-.14a254.81 254.81 0 0 0 66.12-114.6zM436 74.92a255.89 255.89 0 0 0-66.3 247.25 254.81 254.81 0 0 1 132.55 0A255.84 255.84 0 0 0 436 74.92z" fill="#c30" style="mix-blend-mode:soft-light"/><path d="M188.77 503.21c91.52 24.52 184.68-3.85 247.24-66.3a254.81 254.81 0 0 1-66.26-114.75 255.89 255.89 0 0 0-180.98 181.05z" fill="#f93" style="mix-blend-mode:multiply"/><path d="M502.3 322.14a254.81 254.81 0 0 0-132.55 0A254.81 254.81 0 0 0 436 436.92l.22-.14a254.81 254.81 0 0 0 66.12-114.6z" fill="#c60"/><path d="M219.79 156.42a255.2 255.2 0 0 1-195.74-8.54 255.2 255.2 0 0 1 132.37 144.45 255.2 255.2 0 0 0 195.75 8.55 255.2 255.2 0 0 0-132.38-144.46z" fill="#f93" style="mix-blend-mode:soft-light"/><path d="M24 147.87a255.2 255.2 0 0 0 195.75 8.55A255.2 255.2 0 0 0 24 147.87z" fill="#c30" style="mix-blend-mode:soft-light"/><path d="M364.25 24C236.11-35.71 83.8 19.73 24 147.87a255.2 255.2 0 0 1 195.75 8.55A255.2 255.2 0 0 0 364.25 24z" fill="#900" style="mix-blend-mode:soft-light"/><path d="M156.42 292.33A255.2 255.2 0 0 1 24 147.87C-35.71 276 19.73 428.32 147.87 488.08a255.2 255.2 0 0 0 8.55-195.75z" fill="#fc6" style="mix-blend-mode:soft-light"/><path d="M24.05 147.87a255.2 255.2 0 0 0 132.37 144.46A255.2 255.2 0 0 0 24.05 147.87z" fill="#ffe4b5"/></g></svg>